<?xml version="1.0" encoding="UTF-8" standalone="no"?>
<!-- Created with Inkscape (http://www.inkscape.org/) -->
<svg
   xmlns:dc="http://purl.org/dc/elements/1.1/"
   xmlns:cc="http://web.resource.org/cc/"
   xmlns:rdf="http://www.w3.org/1999/02/22-rdf-syntax-ns#"
   xmlns:svg="http://www.w3.org/2000/svg"
   xmlns="http://www.w3.org/2000/svg"
   xmlns:sodipodi="http://sodipodi.sourceforge.net/DTD/sodipodi-0.dtd"
   xmlns:inkscape="http://www.inkscape.org/namespaces/inkscape"
   width="50"
   height="60"
   id="svg3221"
   sodipodi:version="0.32"
   inkscape:version="0.45"
   sodipodi:modified="true"
   version="1.0">
  <defs
     id="defs3223">
    <filter
       inkscape:collect="always"
       id="filter3213">
      <feGaussianBlur
         inkscape:collect="always"
         stdDeviation="0.99982672"
         id="feGaussianBlur3215" />
    </filter>
  </defs>
  <sodipodi:namedview
     id="base"
     pagecolor="#ffffff"
     bordercolor="#666666"
     borderopacity="1.0"
     inkscape:pageopacity="0.0"
     inkscape:pageshadow="2"
     inkscape:zoom="5.6"
     inkscape:cx="55.185033"
     inkscape:cy="34.077297"
     inkscape:document-units="px"
     inkscape:current-layer="layer1"
     width="50px"
     height="60px"
     inkscape:window-width="822"
     inkscape:window-height="592"
     inkscape:window-x="50"
     inkscape:window-y="23" />
  <metadata
     id="metadata3226">
    <rdf:RDF>
      <cc:Work
         rdf:about="">
        <dc:format>image/svg+xml</dc:format>
        <dc:type
           rdf:resource="http://purl.org/dc/dcmitype/StillImage" />
      </cc:Work>
    </rdf:RDF>
  </metadata>
  <g
     inkscape:label="Calque 1"
     inkscape:groupmode="layer"
     id="layer1"
     transform="translate(-228.67857,-395.52616)">
    <g
       id="g3217"
       transform="translate(141.32143,225.09255)">
      <path
         sodipodi:nodetypes="ccsccccscc"
         id="path2235"
         d="M 91.875,174.97229 L 91.875,219.98511 C 91.875,219.98511 96.875,212.2805 101.875,209.98511 C 106.875,207.68973 106.875,207.67261 106.875,207.67261 L 116.875,227.89136 L 133.125,216.82886 L 117.71875,200.36011 C 117.71875,200.36011 117.71672,200.35733 121.625,196.48511 C 125.5333,192.61289 134.5,190.64136 134.5,190.64136 L 91.875,174.97229"
         style="fill:#000000;fill-opacity:1;fill-rule:evenodd;stroke:#000000;stroke-width:1px;stroke-linecap:butt;stroke-linejoin:miter;stroke-opacity:1;filter:url(#filter3213)" />
      <path
         sodipodi:nodetypes="ccsccccscc"
         id="path2230"
         d="M 90,172.36218 L 90,217.375 C 90,217.375 95,209.67039 100,207.375 C 105,205.07962 105,205.0625 105,205.0625 L 115,225.28125 L 131.25,214.21875 L 115.84375,197.75 C 115.84375,197.75 115.84172,197.74722 119.75,193.875 C 123.6583,190.00278 132.625,188.03125 132.625,188.03125 L 90,172.36218"
         style="fill:#000000;fill-opacity:1;fill-rule:evenodd;stroke:#000000;stroke-width:1px;stroke-linecap:butt;stroke-linejoin:miter;stroke-opacity:1" />
    </g>
  </g>
</svg>
